<?xml version="1.0" encoding="utf-8"?>
<!-- Generator: Adobe Illustrator 26.3.1, SVG Export Plug-In . SVG Version: 6.00 Build 0)  -->
<svg version="1.1" id="Layer_1" xmlns="http://www.w3.org/2000/svg" xmlns:xlink="http://www.w3.org/1999/xlink" x="0px" y="0px"
	 viewBox="0 0 720 720" style="enable-background:new 0 0 720 720;" xml:space="preserve">
<style type="text/css">
	.st0{fill:#E2DDE4;}
</style>
<path class="st0" d="M683,360c0,145.14-141.03,262.8-315,262.8S53,505.14,53,360c0-12.87,1.11-25.52,3.26-37.89
	c19.87,57.27,74.31,98.39,138.34,98.39c23.99,0,46.63-5.77,66.61-16c30.26,34.55,74.7,56.37,124.23,56.37
	c55.27,0,104.19-27.15,134.15-68.85c12.13,3.05,24.89,4.67,38.05,4.67c52.15,0,97.92-25.49,123.69-63.84
	C682.44,341.78,683,350.83,683,360z"/>
<path class="st0" d="M666.34,285.12c0,48.97-45.71,88.67-102.09,88.67c-20.09,0-38.83-5.04-54.63-13.75
	c-17.35,41.41-66.41,71.26-124.23,71.26c-53.47,0-99.45-25.53-119.79-62.13c-19.74,13.98-44.55,22.3-71.48,22.3
	c-64.43,0-116.66-47.62-116.66-106.35c0-55.57,46.74-101.18,106.34-105.93c14.3-45.26,65.74-78.78,126.99-78.78
	c59.96,0,110.51,32.11,126.03,75.93c6.56-1.15,13.34-1.75,20.29-1.75c28.71,0,54.66,10.3,73.21,26.88
	c10.61-3.25,22.04-5.02,33.93-5.02C620.63,196.45,666.34,236.15,666.34,285.12z"/>
</svg>
