<?xml version="1.0" encoding="utf-8"?>
<!-- Generator: Adobe Illustrator 26.3.1, SVG Export Plug-In . SVG Version: 6.00 Build 0)  -->
<svg version="1.1" id="Layer_1" xmlns="http://www.w3.org/2000/svg" xmlns:xlink="http://www.w3.org/1999/xlink" x="0px" y="0px"
	 viewBox="0 0 720 720" style="enable-background:new 0 0 720 720;" xml:space="preserve">
<style type="text/css">
	.st0{fill:#E2DDE4;}
</style>
<path class="st0" d="M693,385.91c0,135.25-149.09,244.89-333,244.89S27,521.15,27,385.91c0-11.99,1.17-23.78,3.45-35.31
	c21.01,53.37,78.56,91.68,146.25,91.68c25.36,0,49.29-5.38,70.42-14.91c31.99,32.2,78.97,52.53,131.33,52.53
	c58.43,0,110.14-25.3,141.82-64.16c12.82,2.84,26.31,4.35,40.22,4.35c55.13,0,103.52-23.75,130.76-59.49
	C692.41,368.93,693,377.36,693,385.91z"/>
<path class="st0" d="M659.54,273.91c0,48.97-45.71,88.67-102.09,88.67c-20.09,0-38.83-5.04-54.63-13.75
	c-17.35,41.41-66.41,71.26-124.23,71.26c-53.47,0-99.45-25.53-119.79-62.13c-19.74,13.98-44.55,22.3-71.48,22.3
	c-64.43,0-116.66-47.62-116.66-106.35c0-55.57,46.74-101.18,106.34-105.93c14.3-45.26,65.74-78.78,126.99-78.78
	c59.96,0,110.51,32.11,126.03,75.93c6.56-1.15,13.34-1.75,20.29-1.75c28.71,0,54.66,10.3,73.21,26.88
	c10.61-3.25,22.04-5.02,33.93-5.02C613.83,185.24,659.54,224.94,659.54,273.91z"/>
</svg>
